<?xml version="1.0" encoding="utf-8"?>
<!-- Generator: Adobe Illustrator 24.0.1, SVG Export Plug-In . SVG Version: 6.00 Build 0)  -->
<svg version="1.1" id="Capa_1" xmlns="http://www.w3.org/2000/svg" xmlns:xlink="http://www.w3.org/1999/xlink" x="0px" y="0px"
	 viewBox="0 0 512 512" style="enable-background:new 0 0 512 512;" xml:space="preserve">
<style type="text/css">
	.st0{fill:#F6C90E;}
</style>
<g>
	<path class="st0" d="M476.2,81l-352.3-0.6l-10-55C111.3,10.7,98.5,0,83.6,0H15C6.7,0,0,6.7,0,15s6.7,15,15,15
		c72.6,0,69.2-0.4,69.4,0.7c16.3,89.6,5.9,27,49.7,306.4l-38.5,0.2c-18,0.1-32.1,15.9-29.8,33.9l4.3,34
		c1.9,15.1,14.7,26.4,29.9,26.4h26.6c-18.8,36.5,7.8,80.3,49.1,80.3c41.2,0,67.9-43.8,49.1-80.3h142.9
		c-18.8,36.5,7.8,80.3,49.1,80.3c41.2,0,67.9-43.8,49.1-80.3H497c8.3,0,15-6.7,15-15s-6.7-15-15-15c-415.7,0-397.1,0.1-397.2-0.1
		c-4.6-36.5-4.4-34.1-4.1-34.2c199.8-1-277.7,0.1,369,0.1c26.9,0,47.3-20.4,47.3-47.4V116.8C512,97.1,496,81,476.2,81z M200.8,456.8
		c0,13.9-11.3,25.2-25.2,25.2s-25.2-11.3-25.2-25.2s11.3-25.2,25.2-25.2S200.8,443,200.8,456.8L200.8,456.8z M441.8,456.8
		c0,13.9-11.3,25.2-25.2,25.2s-25.2-11.3-25.2-25.2s11.3-25.2,25.2-25.2S441.8,443,441.8,456.8L441.8,456.8z M482,116.7V209h-97
		l12.3-98.2l78.9,0.1C479.4,111,482,113.6,482,116.7z M269.3,337.4L257,239h94l-12.3,98.4H269.3z M164.5,337.4L149.1,239h77.7
		l12.3,98.4H164.5z M253.2,209l-12.3-98.4l126.1,0.2L354.8,209H253.2z M210.7,110.5L223,209h-78.6l-15.5-98.6L210.7,110.5z
		 M464.7,337.4h-95.8l12.3-98.4H482v81C482,330.4,475.1,337.4,464.7,337.4z"/>
</g>
</svg>
