<?xml version="1.0" encoding="utf-8"?>
<!-- Generator: Adobe Illustrator 24.0.1, SVG Export Plug-In . SVG Version: 6.00 Build 0)  -->
<svg version="1.1" id="Capa_1" xmlns="http://www.w3.org/2000/svg" xmlns:xlink="http://www.w3.org/1999/xlink" x="0px" y="0px"
	 viewBox="0 0 512 512" style="enable-background:new 0 0 512 512;" xml:space="preserve">
<style type="text/css">
	.st0{fill:#F6C90E;}
</style>
<g>
	<path class="st0" d="M245,263.1c5.9,6.1,15.6,6.1,21.5,0l72.8-75c25.6-26.2,25.6-68.8,0-95c-23-23.5-58.2-26-83.5-9.3
		c-19.1-12.7-38.9-10.8-36-10.8c-58.9,0-89.2,72.4-47.5,115.1L245,263.1z M193.7,114.1c14.2-14.5,37.3-14.7,51.4-0.4
		c5.9,6,15.6,6,21.4,0c14-14.4,37.1-14.2,51.4,0.4c13.6,13.9,15.4,37.4-0.8,53.9c-1.5,1.5,11.1-11.4-61.3,63.1
		c-59.8-61.6-61.2-63-61.3-63.1C178.4,151.5,180.2,128,193.7,114.1L193.7,114.1z"/>
	<path class="st0" d="M440.4,0H71.6c-8.3,0-15,6.7-15,15v481.6c0,12.4,14.3,19.5,24.1,11.9L256,374.5l175.3,134.4
		c9.9,7.6,24.1,0.5,24.1-11.9l0-482C455.4,6.7,448.7,0,440.4,0L440.4,0z M425.4,466.6L265.1,343.7c-5.3-4.1-12.8-4.2-18.2,0
		L86.6,466.3V30h338.8L425.4,466.6z"/>
</g>
</svg>
