<?xml version="1.0" encoding="utf-8"?>
<!-- Generator: Adobe Illustrator 24.0.1, SVG Export Plug-In . SVG Version: 6.00 Build 0)  -->
<svg version="1.1" id="Capa_1" xmlns="http://www.w3.org/2000/svg" xmlns:xlink="http://www.w3.org/1999/xlink" x="0px" y="0px"
	 viewBox="0 0 512 512" style="enable-background:new 0 0 512 512;" xml:space="preserve">
<style type="text/css">
	.st0{fill:#E51515;}
</style>
<g>
	<path class="st0" d="M361.2,0c-54.1,0-99.8,36-114.5,85.3H53.7c-18,0-28.6,20.3-18.3,35.1c0.2,0.2-5.4-7.3,129.7,177
		c2.7,4,4.1,8.6,4.1,13.4v177.7c0,19.4,22.2,30.2,37.5,18.8l57.6-43.5c8.6-6.4,13.8-16.7,13.8-27.4V310.9c0-4.8,1.4-9.4,4.1-13.4
		l46.5-63.5c76.1,21.4,151.8-36,151.8-114.8C480.6,53.5,427,0,361.2,0L361.2,0z M258,279.9c-5.8,8-9.8,19.1-9.8,30.9
		c0,136.5,0.7,127.1-1.7,128.9c-1.9,1.4,10.8-8.2-47.1,35.6V310.9c0-11-3.3-21.6-9.6-30.6c-0.2-0.2,4.9,6.7-120.8-164.9h172.9
		c-1.5,44.9,22.1,85,58.7,106.6L258,279.9z M361.2,208.5c-49.3,0-89.4-40-89.4-89.2c0-49.2,40.1-89.2,89.4-89.2
		c49.3,0,89.4,40,89.4,89.2C450.6,168.5,410.5,208.5,361.2,208.5z"/>
	<path class="st0" d="M400.2,80.3c-5.9-5.9-15.3-5.9-21.2,0l-17.8,17.8l-17.8-17.8c-5.9-5.9-15.4-5.8-21.2,0
		c-5.9,5.9-5.8,15.4,0,21.2l17.8,17.7L322.2,137c-5.9,5.9-5.9,15.4,0,21.2c5.8,5.8,15.3,5.9,21.2,0l17.8-17.8l17.8,17.8
		c5.8,5.8,15.3,5.9,21.2,0c5.9-5.9,5.8-15.4,0-21.2l-17.8-17.7l17.8-17.7C406,95.7,406.1,86.2,400.2,80.3z"/>
</g>
</svg>
